<svg width="192" height="170" viewBox="0 0 192 170" fill="none" xmlns="http://www.w3.org/2000/svg">
<path d="M87.2226 10.6924C91.1234 4.43592 100.273 4.4359 104.174 10.6924L104.358 11L184.033 149C187.882 155.666 183.071 164 175.373 164H16.0234C8.32574 164 3.51449 155.667 7.36324 149L87.038 11L87.2226 10.6924Z" stroke="black" stroke-width="12" stroke-linejoin="bevel"/>
<circle cx="96.0957" cy="138" r="12" fill="black"/>
<path d="M84.3302 51.2219C84.2028 48.9291 86.0277 47 88.3241 47H103.808C106.126 47 107.959 48.9644 107.799 51.2771L103.354 115.277C103.209 117.374 101.465 119 99.3638 119H91.8796C89.7567 119 88.0035 117.342 87.8858 115.222L84.3302 51.2219Z" fill="black"/>
</svg>
