<svg width="244" height="246" viewBox="0 0 244 246" fill="none" xmlns="http://www.w3.org/2000/svg">
<path d="M34.0002 117.58C34.0002 114.042 35.5617 110.684 38.2674 108.404L115.179 43.591C119.686 39.7932 126.283 39.8302 130.747 43.6783L205.835 108.41C208.48 110.689 210 114.007 210 117.499V233.5C210 240.127 204.628 245.5 198 245.5H160.5C153.873 245.5 148.5 240.127 148.5 233.5V202.34V168.5C148.5 161.873 143.128 156.5 136.5 156.5H123H107.5C100.873 156.5 95.5002 161.873 95.5002 168.5V200.5V232.694C95.5002 239.245 90.2458 244.585 83.6953 244.692L46.1953 245.302C39.4924 245.411 34.0002 240.007 34.0002 233.303V117.58Z" fill="black"/>
<path d="M232 106L122 12L12.0002 106" stroke="black" stroke-width="24" stroke-linecap="round" stroke-linejoin="round"/>
</svg>
